<?xml version="1.0" encoding="UTF-8" standalone="no"?>
<!-- Created with Inkscape (http://www.inkscape.org/) -->

<svg
   xmlns:dc="http://purl.org/dc/elements/1.1/"
   xmlns:cc="http://creativecommons.org/ns#"
   xmlns:rdf="http://www.w3.org/1999/02/22-rdf-syntax-ns#"
   xmlns:svg="http://www.w3.org/2000/svg"
   xmlns="http://www.w3.org/2000/svg"
   xmlns:sodipodi="http://sodipodi.sourceforge.net/DTD/sodipodi-0.dtd"
   xmlns:inkscape="http://www.inkscape.org/namespaces/inkscape"
   sodipodi:docname="biohazard.svg"
   inkscape:version="0.47pre4 r22446"
   sodipodi:version="0.32"
   id="svg24159"
   height="285.01000pt"
   width="301.15000pt"
   version="1.0"
   inkscape:export-filename="/home/ryanm/funspace/Trace/res-src/biohazard.png"
   inkscape:export-xdpi="76.828163"
   inkscape:export-ydpi="76.828163">
  <metadata
     id="metadata7">
    <rdf:RDF>
      <cc:Work
         rdf:about="">
        <dc:format>image/svg+xml</dc:format>
        <dc:type
           rdf:resource="http://purl.org/dc/dcmitype/StillImage" />
        <dc:title></dc:title>
      </cc:Work>
    </rdf:RDF>
  </metadata>
  <defs
     id="defs5">
    <inkscape:perspective
       sodipodi:type="inkscape:persp3d"
       inkscape:vp_x="0 : 178.13126 : 1"
       inkscape:vp_y="0 : 1000 : 0"
       inkscape:vp_z="376.4375 : 178.13126 : 1"
       inkscape:persp3d-origin="188.21875 : 118.75417 : 1"
       id="perspective7" />
  </defs>
  <sodipodi:namedview
     inkscape:current-layer="svg24159"
     inkscape:window-y="33"
     inkscape:window-x="0"
     inkscape:cy="160.23128"
     inkscape:cx="200"
     inkscape:zoom="0.9475"
     inkscape:window-height="668"
     inkscape:window-width="700"
     inkscape:pageshadow="2"
     inkscape:pageopacity="0.0"
     borderopacity="1.0"
     bordercolor="#666666"
     pagecolor="#ffffff"
     id="base"
     showgrid="false"
     inkscape:window-maximized="0" />
  <path
     id="path7214"
     style="fill:#000000;fill-opacity:1;fill-rule:nonzero;stroke:none;display:inline"
     d="m 185.17957,12.50407 c -5.3e-4,8.3e-4 4.5e-4,0.0279 0,0.0287 0.009,-0.003 0.0196,-0.0252 0.0285,-0.0287 -0.004,0 -0.025,-1.6e-4 -0.0285,0 z m -2.14731,0.086 c -0.0202,0.002 -0.0372,0.0257 -0.0573,0.0286 0.0768,-0.005 0.15228,-0.0241 0.22917,-0.0286 -0.019,2e-4 -0.0386,-8.8e-4 -0.0573,0 -0.0417,0.002 -0.0741,-0.005 -0.1145,0 z m 10.42147,0.0572 c 0.15267,0.0112 0.30571,0.0165 0.45807,0.0286 -0.1499,-0.009 -0.3078,-0.0202 -0.45807,-0.0286 z m 0.45807,0.0286 c 38.55511,3.06439 68.91361,35.38667 68.91361,74.72545 0,40.05443 -31.50861,72.72318 -71.06093,74.75419 l 0,15.34598 c 10.79818,1.70718 19.06799,11.08473 19.06799,22.36043 0,2.75971 -0.49681,5.39884 -1.40291,7.84472 l 14.02898,8.10243 c 21.68038,-32.74953 65.42145,-43.43566 99.89167,-23.5343 34.38821,19.85406 47.08564,62.92641 29.74703,98.03075 23.79587,-46.31548 7.24859,-103.72117 -38.33613,-130.03957 -11.40536,-6.58485 -23.55748,-10.59648 -35.84537,-12.25383 4.70354,-11.46768 7.30073,-24.02472 7.30073,-37.19105 0,-52.25341 -40.82956,-95.03008 -92.30467,-98.1452 z m -12.56874,0.0573 c -51.21785,3.3829 -91.789327,46.01928 -91.789327,98.08794 0,12.79148 2.4448,25.01644 6.89995,36.21754 -11.92224,1.74547 -23.74085,5.7173 -34.81463,12.11071 C 16.359514,185.29153 -0.22723942,242.09329 22.873472,288.24419 6.1945966,253.30798 18.985308,210.81334 53.078548,191.12956 87.766683,171.10243 131.80745,182.056 153.34239,215.29373 l 13.5423,-7.81611 c -0.85109,-2.37921 -1.28835,-4.94511 -1.28835,-7.61567 0,-10.79699 7.56976,-19.82745 17.6936,-22.07417 l 0,-15.66079 c -39.20214,-2.40113 -70.31641,-34.92277 -70.31641,-74.72564 0,-39.15879 30.06597,-71.3526 68.36953,-74.66819 z m 4.38047,94.13694 c -19.78655,0.45517 -38.02732,7.1912 -52.99501,18.15179 1.19574,1.76949 2.48053,3.48199 3.83644,5.12483 1.35603,1.64283 2.78964,3.21904 4.29461,4.724 1.50495,1.50497 3.08118,2.93868 4.72409,4.2946 1.20787,0.99694 2.50199,1.89452 3.77919,2.80578 11.04849,-7.25415 24.27936,-11.50937 38.53664,-11.50937 14.25713,-6e-5 27.45947,4.25522 38.50795,11.50937 1.27721,-0.91126 2.57127,-1.80884 3.7792,-2.80578 1.64288,-1.35592 3.21908,-2.78963 4.72399,-4.2946 1.50507,-1.50496 2.93868,-3.08117 4.29465,-4.724 1.35592,-1.64284 2.64065,-3.35534 3.83647,-5.12483 -15.50867,-11.35674 -34.52873,-18.15179 -55.14226,-18.15179 -0.4832,0 -0.97881,-0.007 -1.46024,0 -0.23499,0.004 -0.48111,-0.005 -0.71572,0 z m -90.185967,82.57033 c -2.08096,19.10921 1.5463,38.97962 11.853007,56.83148 10.30677,17.85179 25.69974,30.95588 43.28924,38.70836 0.93458,-1.9203 1.7747,-3.90215 2.51949,-5.89787 0.74485,-1.99568 1.39604,-4.01375 1.94682,-6.0696 0.55094,-2.05585 1.02138,-4.14078 1.37428,-6.24147 0.25955,-1.54457 0.39349,-3.10513 0.54411,-4.66681 -11.80662,-5.94119 -22.10317,-15.28124 -29.23177,-27.62841 -7.12863,-12.34713 -10.06298,-25.91383 -9.30493,-39.10917 -1.42767,-0.6505 -2.85586,-1.31343 -4.32324,-1.86101 -1.99568,-0.7447 -4.01378,-1.39598 -6.06963,-1.94686 -2.05585,-0.5509 -4.14071,-0.99274 -6.24142,-1.34565 -2.100687,-0.35288 -4.225657,-0.62224 -6.355957,-0.77299 z m 185.353677,1.11653 c -2.1304,0.15091 -4.25524,0.42017 -6.35596,0.77306 -2.10072,0.35299 -4.18567,0.79474 -6.24152,1.34567 -2.05575,0.55091 -4.10249,1.20207 -6.09824,1.94689 -1.46735,0.54749 -2.86687,1.23909 -4.29453,1.88952 0.75798,13.19532 -2.17636,26.76217 -9.30497,39.10929 -7.12857,12.34702 -17.42516,21.6585 -29.23163,27.59972 0.15047,1.56164 0.28442,3.12225 0.54395,4.66677 0.35289,2.10073 0.7947,4.1856 1.3456,6.24151 0.55088,2.0558 1.20216,4.1026 1.94692,6.09824 0.7447,1.99582 1.58497,3.9489 2.51945,5.86927 17.58955,-7.75252 32.98251,-20.82797 43.28923,-38.67976 10.30688,-17.85186 13.96259,-37.75095 11.8817,-56.86018 z m -109.712,24.16413 -13.62812,7.90206 c 17.52171,35.15049 4.92358,78.35835 -29.54652,98.25977 -34.300487,19.80333 -77.817241,9.3821 -99.60549,-22.99026 28.27317,43.56525 86.09005,57.84632 131.58563,31.57933 11.0209,-6.36293 20.31772,-14.56572 27.77156,-23.9636 7.60021,9.87914 17.21925,18.45894 28.68772,25.08025 45.54677,26.29635 103.43324,11.95728 131.67157,-31.72254 -21.74789,32.51243 -65.32797,43.03038 -99.69129,23.19067 -34.68809,-20.02724 -47.22032,-63.64951 -29.2031,-98.91826 l -14.17204,-8.18834 c -4.14173,4.61144 -10.15327,7.52983 -16.83476,7.52983 -6.79128,0 -12.88808,-3.01494 -17.03516,-7.75891 z" />
</svg>
